<svg viewBox="0 0 153 18" fill="none" xmlns="http://www.w3.org/2000/svg"><g id="prefix__prefix__logotype"><g id="prefix__prefix__logotype_2"><g id="prefix__prefix__Group_20" fill-rule="evenodd" clip-rule="evenodd" fill="#000"><path id="prefix__prefix__Fill_1" d="M4.928 7.171a20.52 20.52 0 003.795.324c2.485 0 4.077-.864 4.077-3.004 0-2.291-2.376-2.659-4.448-2.659-1.047 0-2.181.108-3.424.324v5.015zM0 .731C2.878.296 5.386.06 8.134.06c3.706 0 7.326.712 7.326 4.537 0 2.983-2.464 4.756-6.062 4.756-1.7 0-2.9-.13-4.47-.433v2.94l2.115.475-.109 1.297H.11L0 12.337l2.246-.498V2.264L.11 2.07 0 .73z"/><path id="prefix__prefix__Fill_3" d="M19.789 8.23c0 2.507 1.417 4.106 4.252 4.106 2.813 0 4.23-1.6 4.23-4.106 0-2.485-1.417-4.106-4.23-4.106-2.835 0-4.252 1.62-4.252 4.106zm11.164 0c0 3.242-2.595 5.836-6.912 5.836s-6.913-2.594-6.913-5.836c0-3.22 2.596-5.836 6.913-5.836s6.912 2.615 6.912 5.836z"/><path id="prefix__prefix__Fill_5" d="M48.48 2.848l.11-.13 3.859.108h4.296l4.687-.108.131.087.044 4.668-1.352.087-.742-3.134-3.182.108v7.543l1.569.238-.087 1.319h-5.605l-.109-1.32 1.57-.237V4.534l-3.14-.087-.98 3.113-1.33-.087.261-4.625z"/><path id="prefix__prefix__Fill_7" d="M66.563 8.23c0 2.507 1.417 4.106 4.252 4.106 2.813 0 4.23-1.6 4.23-4.106 0-2.485-1.417-4.106-4.23-4.106-2.835 0-4.252 1.62-4.252 4.106zm11.165 0c0 3.242-2.596 5.836-6.913 5.836s-6.913-2.594-6.913-5.836c0-3.22 2.596-5.836 6.913-5.836s6.913 2.615 6.913 5.836z"/><path id="prefix__prefix__Fill_9" d="M86.978 12.293c2.158 0 3.315-.605 3.315-1.966 0-1.21-.96-1.644-2.268-1.644H84.12v3.394a16.63 16.63 0 002.857.216zm.502-5.187c1.242 0 1.94-.475 1.94-1.513 0-1.448-1.831-1.47-2.878-1.47-.829 0-1.657.065-2.42.216v2.767h3.358zm-.72-4.539c2.333 0 5.342.411 5.342 2.745 0 1.232-.763 2.032-2.071 2.313v.086c1.788.238 2.944 1.19 2.944 2.659 0 2.81-2.988 3.544-5.604 3.544-2.726 0-4.841-.107-7.349-.345l-.087-1.297 1.548-.216V4.405l-1.44-.196-.086-1.275c2.725-.237 4.906-.367 6.803-.367z"/><path id="prefix__prefix__Fill_11" d="M95.343 13.633l-.11-1.318 1.55-.238V4.382l-1.55-.238.11-1.318h5.516l.131 1.318-1.57.238v7.522h5.299V4.382l-1.548-.238.109-1.318h5.538l.131 1.318-1.57.238v7.522h5.299V4.382l-1.548-.238.109-1.318h5.539l.131 1.318-1.592.238v7.522l1.787-.108.197.065-.175 4.625-1.418.108-.479-2.96H95.343z"/><path id="prefix__prefix__Fill_14" d="M125.812 2.826l.109 1.319-1.591.238v5.403l6.497-4.971v-.432l-1.526-.238.109-1.319h5.539l.109 1.319-1.592.238v7.673l1.592.26-.109 1.318h-5.539l-.109-1.319 1.526-.259v-5.23l-6.497 4.949v.281l1.591.26-.109 1.318h-5.582l-.109-1.319 1.57-.259V4.383l-1.57-.238.109-1.319h5.582z"/><path id="prefix__prefix__Fill_16" d="M143.787 2.826l.109 1.34-1.548.195v2.723c1.112-.021 2.246-.237 3.031-.583.806-.692.85-1.253 1.46-2.291.633-1.06 1.331-1.513 2.966-1.513 1.374 0 2.181.518 2.181 1.664 0 .757-.545 1.405-1.483 1.405-.501 0-1.265-.389-1.265-1.189-.523 0-.741.367-.938.8-.544 1.189-.98 1.86-2.158 2.4v.13c1.156.107 1.875 1.166 2.551 2.246.611.973 1.439 1.903 2.53 1.967l1.243.065.087 1.254c-.589.26-1.09.345-1.941.345-1.351 0-2.377-.54-3.14-1.361-.916-.973-1.591-2.248-2.181-2.961-.61-.714-1.024-.843-2.943-.865V12.1l1.548.216-.109 1.319h-5.539l-.109-1.319 1.57-.216V4.36l-1.57-.195.109-1.34h5.539z"/><path id="prefix__prefix__Fill_18" d="M40.224 12.282c-1.754 0-2.926-.722-3.536-1.882h5.68l.475-1.763h-6.635a6.156 6.156 0 010-.922h6.16l.475-1.764h-6.155c.61-1.16 1.782-1.882 3.536-1.882 2.05 0 3.074.368 4.47 1.34l.938-1.556c-1.57-1.102-3.358-1.513-5.408-1.513-3.178 0-5.372 1.493-6.257 3.61h-1.083v1.765h.668c-.011.152-.023.306-.023.46 0 .157.012.31.023.462h-.668V10.4h1.083c.885 2.118 3.079 3.61 6.257 3.61 2.05 0 3.838-.41 5.408-1.511l-.938-1.557c-1.396.972-2.42 1.34-4.47 1.34z"/></g></g></g></svg>