<svg viewBox="0 0 168 168" fill="none" xmlns="http://www.w3.org/2000/svg"><g id="prefix__prefix__Play"><g id="prefix__prefix__Oval" opacity=".385" filter="url(#prefix__prefix__filter0_dd)"><path d="M138.5 69.5c0 29.823-24.177 54-54 54s-54-24.177-54-54 24.177-54 54-54 54 24.177 54 54z" stroke="url(#prefix__prefix__paint0_linear)"/></g><g id="prefix__prefix__Oval_Copy_4" opacity=".15" filter="url(#prefix__prefix__filter1_dd)"><path d="M151.5 69c0 37.279-30.221 67.5-67.5 67.5-37.28 0-67.5-30.221-67.5-67.5C16.5 31.72 46.72 1.5 84 1.5c37.279 0 67.5 30.22 67.5 67.5z" stroke="url(#prefix__prefix__paint1_linear)"/></g><g id="prefix__prefix__Combined_Shape" filter="url(#prefix__prefix__filter2_dd)"><mask id="prefix__prefix__path-3-inside-1" fill="#fff"><path fill-rule="evenodd" clip-rule="evenodd" d="M125 69c0 22.644-18.356 41-41 41S43 91.644 43 69s18.356-41 41-41 41 18.356 41 41zm-30 .5L77 57v25l18-12.5z"/></mask><path fill-rule="evenodd" clip-rule="evenodd" d="M125 69c0 22.644-18.356 41-41 41S43 91.644 43 69s18.356-41 41-41 41 18.356 41 41zm-30 .5L77 57v25l18-12.5z" fill="#FFC73D"/><path d="M77 57l1.14-1.643-3.14-2.18V57h2zm18 12.5l1.14 1.643 2.366-1.643-2.365-1.643L95 69.5zM77 82h-2v3.824l3.14-2.181L77 82zm7 30c23.748 0 43-19.252 43-43h-4c0 21.54-17.461 39-39 39v4zM41 69c0 23.748 19.252 43 43 43v-4c-21.54 0-39-17.46-39-39h-4zm43-43c-23.748 0-43 19.252-43 43h4c0-21.54 17.46-39 39-39v-4zm43 43c0-23.748-19.252-43-43-43v4c21.539 0 39 17.46 39 39h4zM75.86 58.643l18 12.5 2.28-3.286-18-12.5-2.28 3.286zM79 82V57h-4v25h4zm14.86-14.143l-18 12.5 2.28 3.286 18-12.5-2.28-3.286z" fill="#FFD262" mask="url(#prefix__prefix__path-3-inside-1)"/><path d="M77 57l1.14-1.643-3.14-2.18V57h2zm18 12.5l1.14 1.643 2.366-1.643-2.365-1.643L95 69.5zM77 82h-2v3.824l3.14-2.181L77 82zm7 30c23.748 0 43-19.252 43-43h-4c0 21.54-17.461 39-39 39v4zM41 69c0 23.748 19.252 43 43 43v-4c-21.54 0-39-17.46-39-39h-4zm43-43c-23.748 0-43 19.252-43 43h4c0-21.54 17.46-39 39-39v-4zm43 43c0-23.748-19.252-43-43-43v4c21.539 0 39 17.46 39 39h4zM75.86 58.643l18 12.5 2.28-3.286-18-12.5-2.28 3.286zM79 82V57h-4v25h4zm14.86-14.143l-18 12.5 2.28 3.286 18-12.5-2.28-3.286z" fill="#FFC024" mask="url(#prefix__prefix__path-3-inside-1)"/></g><path id="prefix__prefix__Rectangle" fill-rule="evenodd" clip-rule="evenodd" d="M77 82V57l18 12.5L77 82z" fill="#000"/></g><defs><filter id="prefix__prefix__filter0_dd" x="14" y="14" width="141" height="141" filterUnits="userSpaceOnUse" color-interpolation-filters="sRGB"><feFlood flood-opacity="0" result="BackgroundImageFix"/><feColorMatrix in="SourceAlpha" values="0 0 0 0 0 0 0 0 0 0 0 0 0 0 0 0 0 0 127 0"/><feOffset dy="15"/><feGaussianBlur stdDeviation="8"/><feColorMatrix values="0 0 0 0 0 0 0 0 0 0 0 0 0 0 0 0 0 0 0.260927 0"/><feBlend in2="BackgroundImageFix" result="effect1_dropShadow"/><feColorMatrix in="SourceAlpha" values="0 0 0 0 0 0 0 0 0 0 0 0 0 0 0 0 0 0 127 0"/><feOffset dy="2"/><feGaussianBlur stdDeviation=".5"/><feColorMatrix values="0 0 0 0 0 0 0 0 0 0 0 0 0 0 0 0 0 0 0.153546 0"/><feBlend in2="effect1_dropShadow" result="effect2_dropShadow"/><feBlend in="SourceGraphic" in2="effect2_dropShadow" result="shape"/></filter><filter id="prefix__prefix__filter1_dd" x="0" y="0" width="168" height="168" filterUnits="userSpaceOnUse" color-interpolation-filters="sRGB"><feFlood flood-opacity="0" result="BackgroundImageFix"/><feColorMatrix in="SourceAlpha" values="0 0 0 0 0 0 0 0 0 0 0 0 0 0 0 0 0 0 127 0"/><feOffset dy="15"/><feGaussianBlur stdDeviation="8"/><feColorMatrix values="0 0 0 0 0 0 0 0 0 0 0 0 0 0 0 0 0 0 0.260927 0"/><feBlend in2="BackgroundImageFix" result="effect1_dropShadow"/><feColorMatrix in="SourceAlpha" values="0 0 0 0 0 0 0 0 0 0 0 0 0 0 0 0 0 0 127 0"/><feOffset dy="2"/><feGaussianBlur stdDeviation=".5"/><feColorMatrix values="0 0 0 0 0 0 0 0 0 0 0 0 0 0 0 0 0 0 0.153546 0"/><feBlend in2="effect1_dropShadow" result="effect2_dropShadow"/><feBlend in="SourceGraphic" in2="effect2_dropShadow" result="shape"/></filter><filter id="prefix__prefix__filter2_dd" x="27" y="27" width="114" height="114" filterUnits="userSpaceOnUse" color-interpolation-filters="sRGB"><feFlood flood-opacity="0" result="BackgroundImageFix"/><feColorMatrix in="SourceAlpha" values="0 0 0 0 0 0 0 0 0 0 0 0 0 0 0 0 0 0 127 0"/><feOffset dy="15"/><feGaussianBlur stdDeviation="8"/><feColorMatrix values="0 0 0 0 0 0 0 0 0 0 0 0 0 0 0 0 0 0 0.260927 0"/><feBlend in2="BackgroundImageFix" result="effect1_dropShadow"/><feColorMatrix in="SourceAlpha" values="0 0 0 0 0 0 0 0 0 0 0 0 0 0 0 0 0 0 127 0"/><feOffset dy="2"/><feGaussianBlur stdDeviation=".5"/><feColorMatrix values="0 0 0 0 0 0 0 0 0 0 0 0 0 0 0 0 0 0 0.153546 0"/><feBlend in2="effect1_dropShadow" result="effect2_dropShadow"/><feBlend in="SourceGraphic" in2="effect2_dropShadow" result="shape"/></filter><linearGradient id="prefix__prefix__paint0_linear" x1="101.566" y1="-39.5" x2="-7.434" y2="35.368" gradientUnits="userSpaceOnUse"><stop stop-color="#fff" stop-opacity=".272"/><stop offset="1" stop-color="#fff"/></linearGradient><linearGradient id="prefix__prefix__paint1_linear" x1="105.293" y1="-67" x2="-30.707" y2="26.414" gradientUnits="userSpaceOnUse"><stop stop-color="#fff" stop-opacity=".272"/><stop offset="1" stop-color="#fff"/></linearGradient></defs></svg>