<svg xmlns="http://www.w3.org/2000/svg" viewBox="0 0 336 121"><defs><clipPath id="prefix__prefix__y1tyc"><path fill="#fff" d="M28.5 16c0-7.732 6.268-14 14-14h277c7.732 0 14 6.268 14 14v89c0 7.732-6.268 14-14 14h-277c-7.732 0-14-6.268-14-14v-6.045L2 84.5h26.5z"/></clipPath><filter id="prefix__prefix__y1tya" width="356" height="141" x="-10" y="-10" filterUnits="userSpaceOnUse"><feOffset in="SourceGraphic" result="FeOffset1054Out"/><feGaussianBlur in="FeOffset1054Out" result="FeGaussianBlur1055Out" stdDeviation="0 0"/></filter><mask id="prefix__prefix__y1tyb" width="2.01" height="2.03" x="-1.01" y="-1.02"><path fill="#fff" d="M0 0h336v121H0z"/><path d="M28.5 16c0-7.732 6.268-14 14-14h277c7.732 0 14 6.268 14 14v89c0 7.732-6.268 14-14 14h-277c-7.732 0-14-6.268-14-14v-6.045L2 84.5h26.5z"/></mask></defs><g filter="url(#prefix__prefix__y1tya)"><path fill="none" stroke="#000" stroke-opacity=".06" stroke-width="4" d="M28.5 16c0-7.732 6.268-14 14-14h277c7.732 0 14 6.268 14 14v89c0 7.732-6.268 14-14 14h-277c-7.732 0-14-6.268-14-14v-6.045L2 84.5h26.5z" mask="url(&quot;#y1tyb&quot;)"/><path fill-opacity=".06" d="M28.5 16c0-7.732 6.268-14 14-14h277c7.732 0 14 6.268 14 14v89c0 7.732-6.268 14-14 14h-277c-7.732 0-14-6.268-14-14v-6.045L2 84.5h26.5z"/></g><path fill="none" stroke="#000" stroke-miterlimit="20" stroke-width="2" d="M28.5 16c0-7.732 6.268-14 14-14h277c7.732 0 14 6.268 14 14v89c0 7.732-6.268 14-14 14h-277c-7.732 0-14-6.268-14-14v-6.045L2 84.5h26.5z" clip-path="url(&quot;#y1tyc&quot;)"/></svg>