<svg viewBox="0 0 332 117" fill="none" xmlns="http://www.w3.org/2000/svg"><g id="prefix__prefix__Combined_Shape" filter="url(#prefix__prefix__filter0_d)"><mask id="prefix__prefix__path-1-inside-1" fill="#fff"><path fill-rule="evenodd" clip-rule="evenodd" d="M28.026 7.644C26.5 10.64 26.5 14.56 26.5 22.4v60.1H0l26.502 14.456c.015 6.302.16 9.721 1.524 12.4a14 14 0 006.118 6.118C37.14 117 41.06 117 48.9 117h260.2c7.841 0 11.761 0 14.756-1.526a14 14 0 006.118-6.118c1.526-2.995 1.526-6.915 1.526-14.756V22.4c0-7.84 0-11.761-1.526-14.756a14 14 0 00-6.118-6.118C320.861 0 316.941 0 309.1 0H48.9c-7.84 0-11.761 0-14.756 1.526a14 14 0 00-6.118 6.118z"/></mask><path d="M28.026 7.644l.89.454-.89-.454zM26.5 82.5v1h1v-1h-1zM0 82.5v-1l-.479 1.878L0 82.5zm26.502 14.456l1-.003-.002-.592-.52-.283-.478.877zm1.524 12.4l-.891.454.89-.454zm6.118 6.118l.454-.891-.454.891zm289.712 0l-.454-.891.454.891zm6.118-6.118l-.891-.454.891.454zm0-101.712l-.891.454.891-.454zm-6.118-6.118l-.454.89.454-.89zm-289.712 0l.454.89-.454-.89zM27.5 22.4c0-3.937 0-6.83.187-9.114.186-2.272.55-3.855 1.23-5.188l-1.782-.908c-.847 1.662-1.245 3.537-1.44 5.933-.196 2.385-.195 5.373-.195 9.277h2zm0 60.1V22.4h-2v60.1h2zM0 83.5h26.5v-2H0v2zm26.98 12.578L.48 81.622l-.958 1.756 26.502 14.455.958-1.755zm1.937 12.824c-1.235-2.423-1.4-5.573-1.415-11.949l-2 .005c.015 6.23.138 9.917 1.633 12.852l1.782-.908zm5.681 5.681a12.999 12.999 0 01-5.681-5.681l-1.782.908a15.001 15.001 0 006.555 6.555l.908-1.782zM48.9 116c-3.937 0-6.83-.001-9.114-.187-2.272-.186-3.855-.551-5.188-1.23l-.908 1.782c1.662.847 3.537 1.245 5.933 1.441 2.385.195 5.373.194 9.277.194v-2zm260.2 0H48.9v2h260.2v-2zm14.302-1.417c-1.333.679-2.916 1.044-5.188 1.23-2.285.186-5.177.187-9.114.187v2c3.904 0 6.892.001 9.277-.194 2.396-.196 4.271-.594 5.933-1.441l-.908-1.782zm5.681-5.681a12.997 12.997 0 01-5.681 5.681l.908 1.782a15.002 15.002 0 006.555-6.555l-1.782-.908zM330.5 94.6c0 3.937-.001 6.829-.187 9.114-.186 2.272-.551 3.855-1.23 5.188l1.782.908c.847-1.662 1.245-3.537 1.441-5.933.195-2.385.194-5.373.194-9.277h-2zm0-72.2v72.2h2V22.4h-2zm-1.417-14.302c.679 1.333 1.044 2.916 1.23 5.188.186 2.285.187 5.177.187 9.114h2c0-3.904.001-6.892-.194-9.277-.196-2.396-.594-4.271-1.441-5.933l-1.782.908zm-5.681-5.681a12.998 12.998 0 015.681 5.681l1.782-.908A15.001 15.001 0 00324.31.635l-.908 1.782zM309.1 1c3.937 0 6.829 0 9.114.187 2.272.186 3.855.55 5.188 1.23l.908-1.782c-1.662-.847-3.537-1.245-5.933-1.44C315.992-1.002 313.004-1 309.1-1v2zM48.9 1h260.2v-2H48.9v2zM34.598 2.417c1.333-.68 2.916-1.044 5.188-1.23C42.071 1.001 44.963 1 48.9 1v-2c-3.904 0-6.892 0-9.277.194-2.396.196-4.271.594-5.933 1.44l.908 1.783zm-5.681 5.681a13 13 0 015.681-5.681L33.69.635a15 15 0 00-6.555 6.555l1.782.908z" fill="url(#prefix__prefix__paint0_linear)" mask="url(#prefix__prefix__path-1-inside-1)"/></g><defs><linearGradient id="prefix__prefix__paint0_linear" x1="217.652" y1="-58.5" x2="115.739" y2="139.835" gradientUnits="userSpaceOnUse"><stop stop-color="#fff" stop-opacity=".137"/><stop offset="1" stop-color="#fff" stop-opacity=".699"/></linearGradient><filter id="prefix__prefix__filter0_d" x="0" y="0" width="331.5" height="117" filterUnits="userSpaceOnUse" color-interpolation-filters="sRGB"><feFlood flood-opacity="0" result="BackgroundImageFix"/><feColorMatrix in="SourceAlpha" values="0 0 0 0 0 0 0 0 0 0 0 0 0 0 0 0 0 0 127 0"/><feOffset/><feColorMatrix values="0 0 0 0 0 0 0 0 0 0 0 0 0 0 0 0 0 0 0.059823 0"/><feBlend in2="BackgroundImageFix" result="effect1_dropShadow"/><feBlend in="SourceGraphic" in2="effect1_dropShadow" result="shape"/></filter></defs></svg>