<svg version="1.2" baseProfile="tiny" id="double-tilda" xmlns="http://www.w3.org/2000/svg" x="0" y="0" viewBox="0 0 71 48" xml:space="preserve" width="64" height="43.27"><path id="path" fill-rule="evenodd" d="M13.9 19.9c-.1.7-.2 1-.2 1.1H0c0-1.1.4-2.8 1.1-5.1.7-2.3 2-4.7 3.7-7 1.8-2.3 4.1-4.4 6.9-6.2C14.6.9 18.2 0 22.5 0c2.7 0 5.2.4 7.4 1.1s4.3 1.5 6.3 2.3c2 .8 3.9 1.6 5.8 2.3 1.9.7 3.9 1.1 6.1 1.1 2 0 3.6-.3 4.9-1 1.3-.7 2.2-1.4 2.8-2.2.6-.8 1.1-1.6 1.3-2.3.2-.7.3-1.2.3-1.3H71c0 .7-.4 2.2-1.2 4.5-.8 2.3-2 4.6-3.8 7.1-1.8 2.5-4.1 4.7-7 6.6C56.1 20 52.4 21 48 21c-2.6 0-5-.3-7.2-1s-4.3-1.4-6.3-2.2c-2-.8-4-1.5-6-2.2-1.9-.7-4-1-6.2-1-2.1 0-3.7.3-4.9.9-1.2.6-2 1.3-2.6 2.1s-.8 1.6-.9 2.3zm0 27c-.1.7-.2 1-.2 1.1H0c0-1.1.4-2.8 1.1-5.1.7-2.3 2-4.7 3.7-7s4.1-4.4 6.9-6.2c2.8-1.8 6.4-2.7 10.8-2.7 2.7 0 5.2.4 7.4 1.1 2.2.7 4.3 1.5 6.3 2.3 2 .8 3.9 1.6 5.8 2.3 1.9.7 3.9 1.1 6.1 1.1 2 0 3.6-.3 4.9-1 1.3-.7 2.2-1.4 2.8-2.2.6-.8 1.1-1.6 1.3-2.3.2-.7.3-1.2.3-1.3H71c0 .7-.4 2.2-1.2 4.5s-2 4.6-3.8 7.1c-1.8 2.5-4.1 4.7-7 6.6C56.1 47 52.4 48 48 48c-2.6 0-5-.3-7.2-1s-4.3-1.4-6.3-2.2c-2-.8-4-1.5-6-2.2-1.9-.7-4-1-6.2-1-2.1 0-3.7.3-4.9.9-1.2.6-2 1.3-2.6 2.1s-.8 1.6-.9 2.3z"/></svg>