<svg viewBox="0 0 24 25" xmlns="http://www.w3.org/2000/svg" width="24" height="25"><g id="icon/hryvnya"><path id="₴" fill-rule="evenodd" clip-rule="evenodd" d="M11.934 22.2c1.805 0 3.212-.452 4.247-1.302 1.062-.929 1.726-2.336 1.938-4.221h-3c-.239 1.965-1.3 2.947-3.185 2.947-1.01 0-1.78-.239-2.257-.69-.478-.425-.717-1.062-.717-1.912 0-.637.292-1.221.93-1.805h9.61v-1.752h-6.664c1.646-.797 2.735-1.38 3.24-1.753l.026-.026H19.5V9.934h-1.885a4.82 4.82 0 00.531-2.204c0-1.779-.584-3.106-1.7-3.982-1.061-.85-2.521-1.248-4.38-1.248-1.805 0-3.212.425-4.22 1.3-1.116.904-1.753 2.31-1.965 4.222h3c.212-1.964 1.274-2.947 3.185-2.947 1.01 0 1.753.186 2.257.584.478.372.717 1.062.717 2.018 0 .796-.372 1.46-1.089 2.044-.106.053-.186.133-.292.213H4.5v1.752h5.84c-1.406.69-2.336 1.221-2.813 1.646-.054.053-.107.08-.16.133H4.5v1.752h1.7c-.213.53-.32 1.141-.32 1.832 0 1.752.505 3.053 1.567 3.902 1.009.823 2.495 1.248 4.487 1.248z"/></g></svg>