<svg version="1.2" baseProfile="tiny" id="Layer_1" xmlns="http://www.w3.org/2000/svg" x="0" y="0" viewBox="0 0 88 88" xml:space="preserve" width="64" height="64"><path id="icon_2" fill-rule="evenodd" d="M80.3 5.2h-16L60.8 0H27.2l-3.4 5.2h-16C3.5 5.2 0 8.6 0 12.9V88h88V12.9c0-4.3-3.5-7.7-7.7-7.7zM47.2 39.7L52 83H37l2.3-20.9h5.2v-5.2h-4.6l1.9-17.2 2.7-2.7 2.7 2.7zM29.5 6L41 17.6 31.7 27 22 17.3 29.5 6zm15 8L35 5h19l-9.5 9zm-.5 8l4 4-4 4-4-4 4-4zm3-4.4L58.5 6 66 17.3 56.3 27 47 17.6zm-42-4C5 12.1 6.2 11 7.6 11h12.8L15 19l16.6 16.1 5.3-5.1 4.1 4-4.1 4-2.2 19.3h-3.2v5.1h2.6L31.8 83H5V13.6zM83 83H56.2l-5.1-45-4.1-4 4.2-4.1 5.3 5.1L73 19l-5.5-8h12.8c1.5 0 2.6 1.1 2.6 2.6V83z"/></svg>