<svg xmlns="http://www.w3.org/2000/svg" viewBox="0 0 100 125" width="51.2" height="64"><switch><g><path d="M5273.1 2400.1v-2c0-2.8-5-4-9.7-4s-9.7 1.3-9.7 4v2c0 1.8.7 3.6 2 4.9l5 4.9c.3.3.4.6.4 1v6.4c0 .4.2.7.6.8l2.9.9c.5.1 1-.2 1-.8v-7.2c0-.4.2-.7.4-1l5.1-5c1.3-1.3 2-3.1 2-4.9zm-9.7-.1c-4.8 0-7.4-1.3-7.5-1.8.1-.5 2.7-1.8 7.5-1.8s7.3 1.3 7.5 1.8c-.2.5-2.7 1.8-7.5 1.8z"/><path d="M5268.4 2410.3c-.6 0-1 .4-1 1s.4 1 1 1h4.3c.6 0 1-.4 1-1s-.4-1-1-1h-4.3zm4.3 3.4h-4.3c-.6 0-1 .4-1 1s.4 1 1 1h4.3c.6 0 1-.4 1-1s-.4-1-1-1zm0 3.3h-4.3c-.6 0-1 .4-1 1s.4 1 1 1h4.3c.6 0 1-.4 1-1 0-.5-.4-1-1-1zM50 41.1c9.5 0 17.3-7.8 17.3-17.3S59.5 6.5 50 6.5s-17.3 7.8-17.3 17.3S40.5 41.1 50 41.1zm-7.9-19.3c1.1-1.1 2.8-1.1 3.8 0l2.1 2.1 6-6c1.1-1.1 2.8-1.1 3.8 0 1.1 1.1 1.1 2.8 0 3.8l-7.9 7.9c-.5.5-1.2.8-1.9.8s-1.4-.3-1.9-.8l-4-4c-1-1-1-2.7 0-3.8zm-7 49.6c-1.8-2.8-4.9-4.6-8.3-4.6-.6 0-1.1.3-1.4.8L21.6 73c-.5.7-1.5.7-2 0l-3.8-5.4c-.3-.5-.9-.8-1.4-.8-4.6 0-8.6 3.2-9.6 7.7l-2.2 9.7c-.5 2.2 1.2 4.2 3.4 4.2h22.4l2.2-9.7c.6-2.8 2.2-5.4 4.5-7.3zm-14.5-6c5.1 0 9.3-4.2 9.3-9.3v-3.9c0-5.1-4.2-9.3-9.3-9.3-5.1 0-9.3 4.2-9.3 9.3v3.9c0 5.1 4.2 9.3 9.3 9.3zm76.8 18.8l-2.2-9.7c-1-4.5-5-7.7-9.6-7.7-.6 0-1.1.3-1.4.8L80.4 73c-.5.7-1.5.7-2 0l-3.8-5.4c-.3-.5-.9-.8-1.4-.8-3.4 0-6.5 1.8-8.3 4.6 2.2 1.9 3.8 4.5 4.5 7.4l2.2 9.7H94c2.3 0 3.9-2.1 3.4-4.3zm-18-18.8c5.1 0 9.3-4.2 9.3-9.3v-3.9c0-5.1-4.2-9.3-9.3-9.3-5.1 0-9.3 4.2-9.3 9.3v3.9c0 5.1 4.2 9.3 9.3 9.3zM65.8 79.6c-1-4.5-5-7.7-9.6-7.7-.6 0-1.1.3-1.4.8L51 78.1c-.5.7-1.5.7-2 0l-3.8-5.4c-.3-.5-.9-.8-1.4-.8-4.6 0-8.6 3.2-9.6 7.7L32 89.3c-.5 2.2 1.2 4.2 3.4 4.2h29.2c2.2 0 3.9-2.1 3.4-4.2l-2.2-9.7zM40.7 57.3v3.9c0 5.1 4.2 9.3 9.3 9.3 5.1 0 9.3-4.2 9.3-9.3v-3.9c0-5.1-4.2-9.3-9.3-9.3-5.1 0-9.3 4.2-9.3 9.3z"/></g></switch><text y="115" font-size="5" font-weight="bold" font-family="'Helvetica Neue', Helvetica, Arial-Unicode, Arial, Sans-serif">Created by Alice Design</text><text y="120" font-size="5" font-weight="bold" font-family="'Helvetica Neue', Helvetica, Arial-Unicode, Arial, Sans-serif">from the Noun Project</text></svg>