<svg viewBox="0 0 33 25" xmlns="http://www.w3.org/2000/svg" width="33" height="25"><path id="Combined Shape" fill-rule="evenodd" clip-rule="evenodd" d="M32.067 25H15.08L14 21.8c2.053-1.867 3.974-3.493 5.76-4.88 1.787-1.387 3.293-2.68 4.52-3.88.933-.88 1.66-1.74 2.18-2.58.52-.84.793-1.713.82-2.62.027-1.413-.427-2.473-1.36-3.18-.933-.707-2.053-1.06-3.36-1.06-.933 0-1.9.187-2.9.56-1 .373-1.9.947-2.7 1.72l-2-1.88c1.093-1.173 2.334-2.027 3.72-2.56 1.387-.533 2.76-.8 4.12-.8 1.387 0 2.68.267 3.88.8 1.2.533 2.167 1.3 2.9 2.3.734 1 1.1 2.233 1.1 3.7 0 1.253-.4 2.48-1.2 3.68-.8 1.2-1.826 2.4-3.08 3.6a58.682 58.682 0 01-4.28 3.7 116.374 116.374 0 00-4.6 3.82h14.547V25zM6.168 15.088L3.408 19H.096l4.536-6.264L.168 6.424h3.288l2.712 3.936.192.432.24-.432 2.688-3.936H12.6l-4.488 6.312L12.672 19H9.36l-2.784-3.912-.216-.408-.192.408z"/></svg>