<svg version="1.1" id="prefix__prefix__Layer_1" xmlns="http://www.w3.org/2000/svg" x="0" y="0" viewBox="0 0 512 279" xml:space="preserve"><linearGradient id="prefix__prefix__SVGID_1_" gradientUnits="userSpaceOnUse" x1="165.53" y1="129.413" x2="374.06" y2="129.413" gradientTransform="matrix(1 0 0 -1 0 280)"><stop offset="0" stop-color="#f58020"/><stop offset="1" stop-color="#fbbe4b"/></linearGradient><path d="M215.6 261.5c-15.7-10.2-28-24.9-36.8-44-8.8-19.1-13.2-41.6-13.2-67.2 0-41.1 9.3-72.3 27.8-93.9 18.5-21.5 44-32.2 76.5-31.9 20.4 0 38.5 5 54.2 15.1 15.7 10.1 28 24.7 36.8 43.8 8.8 19.1 13.2 41.4 13.2 66.9 0 26.2-4.4 48.9-13.2 68-8.9 19-21.2 33.7-36.9 43.7-15.7 10.1-33.8 15-54.2 14.7-20.4.1-38.5-5-54.2-15.2zm103.1-44.8c11.5-16.6 17.3-39 17.6-67.2-.3-27.4-6.1-49.3-17.6-65.5-11.5-16.2-27.9-24.4-49.3-24.4-21.2 0-37.4 8.2-48.7 24.6s-17.1 38.4-17.4 66.1c.3 28 6 50.2 17.4 66.7 11.3 16.5 27.6 24.7 48.7 24.7 21.4-.1 37.9-8.4 49.3-25z" fill="url(#prefix__prefix__SVGID_1_)"/><path d="M174.5 111.6c12.6 7.6 22.8 18.1 30.5 31.4 7.8 13.3 11.6 28.1 11.6 44.5 0 18-4.4 33.9-13.3 47.8-8.9 13.9-20.6 24.6-35.3 32.2-14.7 7.6-30.3 11.4-47 11.4-18.6 0-35.3-4.4-50.1-13.3-14.8-8.9-26.5-21.5-35.1-37.8-8.5-16.4-12.8-35.5-12.8-57.4 0-33 11.7-63.7 35.1-92.3s53.7-54.7 90.8-78.5l27 29.5c-24.7 12.2-45.3 26.4-61.9 42.6s-28.8 32.9-36.6 50.1c14.4-14.4 33.4-21.6 56.9-21.6 14.2 0 27.6 3.8 40.2 11.4zm-15.4 115.7c10.7-10.3 16-23.5 16-39.9 0-15.8-5.3-28.6-16-38.4-10.7-9.8-23.9-14.8-39.7-14.8-10 0-19.2 2.1-27.6 6.4-8.4 4.3-15.2 10.1-20.2 17.4-5 7.3-7.5 15.3-7.5 23.9v7.5c0 9.4 2.5 18.2 7.5 26.4s11.7 14.7 20.2 19.5c8.4 4.9 17.7 7.3 27.6 7.3 15.8.1 29-5 39.7-15.3z" fill="#fbbe4b"/><path d="M397.597 265.68l104.58-104.58 3.536 3.535-104.58 104.58zM485.1 276.7c-14.8 0-26.9-12.1-26.9-26.9s12.1-26.9 26.9-26.9c14.8 0 26.9 12.1 26.9 26.9s-12.1 26.9-26.9 26.9zm0-49.6c-12.5 0-22.8 10.2-22.8 22.8 0 12.5 10.2 22.8 22.8 22.8 12.5 0 22.8-10.2 22.8-22.8 0-12.6-10.2-22.8-22.8-22.8zm-69-19.4c-17.9 0-32.4-14.5-32.4-32.4s14.5-32.4 32.4-32.4 32.4 14.5 32.4 32.4-14.5 32.4-32.4 32.4zm0-59.8c-15.1 0-27.4 12.3-27.4 27.4s12.3 27.4 27.4 27.4 27.4-12.3 27.4-27.4-12.3-27.4-27.4-27.4z" fill="#003049" stroke="#003049" stroke-width=".5" stroke-miterlimit="10"/></svg>