<svg viewBox="0 0 194 194" fill="none" xmlns="http://www.w3.org/2000/svg"><g id="prefix__prefix__Play"><g id="prefix__prefix__Oval" opacity=".385" filter="url(#prefix__prefix__filter0_dd)"><path d="M161.5 82c0 35.622-28.878 64.5-64.5 64.5S32.5 117.622 32.5 82 61.378 17.5 97 17.5s64.5 28.878 64.5 64.5z" stroke="url(#prefix__prefix__paint0_linear)"/></g><g id="prefix__prefix__Oval_Copy_4" opacity=".15" filter="url(#prefix__prefix__filter1_dd)"><path d="M177.5 82c0 44.459-36.041 80.5-80.5 80.5S16.5 126.459 16.5 82 52.541 1.5 97 1.5s80.5 36.041 80.5 80.5z" stroke="url(#prefix__prefix__paint1_linear)"/></g><g id="prefix__prefix__Combined_Shape" filter="url(#prefix__prefix__filter2_dd)"><mask id="prefix__prefix__path-3-inside-1" fill="#fff"><path fill-rule="evenodd" clip-rule="evenodd" d="M146 82c0 27.062-21.938 49-49 49s-49-21.938-49-49 21.938-49 49-49 49 21.938 49 49zm-36.038 0l-22-15v30l22-15z"/></mask><path fill-rule="evenodd" clip-rule="evenodd" d="M146 82c0 27.062-21.938 49-49 49s-49-21.938-49-49 21.938-49 49-49 49 21.938 49 49zm-36.038 0l-22-15v30l22-15z" fill="#FFC73D"/><path d="M87.962 67l1.127-1.653-3.127-2.131V67h2zm22 15l1.127 1.653L113.512 82l-2.423-1.653L109.962 82zm-22 15h-2v3.784l3.127-2.132L87.962 97zM97 133c28.167 0 51-22.833 51-51h-4c0 25.957-21.043 47-47 47v4zM46 82c0 28.167 22.834 51 51 51v-4c-25.957 0-47-21.043-47-47h-4zm51-51c-28.166 0-51 22.834-51 51h4c0-25.957 21.043-47 47-47v-4zm51 51c0-28.166-22.833-51-51-51v4c25.957 0 47 21.043 47 47h4zM86.835 68.653l22 15 2.254-3.306-22-15-2.254 3.306zM89.962 97V67h-4v30h4zm18.873-16.653l-22 15 2.254 3.306 22-15-2.254-3.306z" fill="#FFD262" mask="url(#prefix__prefix__path-3-inside-1)"/><path d="M87.962 67l1.127-1.653-3.127-2.131V67h2zm22 15l1.127 1.653L113.512 82l-2.423-1.653L109.962 82zm-22 15h-2v3.784l3.127-2.132L87.962 97zM97 133c28.167 0 51-22.833 51-51h-4c0 25.957-21.043 47-47 47v4zM46 82c0 28.167 22.834 51 51 51v-4c-25.957 0-47-21.043-47-47h-4zm51-51c-28.166 0-51 22.834-51 51h4c0-25.957 21.043-47 47-47v-4zm51 51c0-28.166-22.833-51-51-51v4c25.957 0 47 21.043 47 47h4zM86.835 68.653l22 15 2.254-3.306-22-15-2.254 3.306zM89.962 97V67h-4v30h4zm18.873-16.653l-22 15 2.254 3.306 22-15-2.254-3.306z" fill="#FFC024" mask="url(#prefix__prefix__path-3-inside-1)"/></g></g><defs><filter id="prefix__prefix__filter0_dd" x="16" y="16" width="162" height="162" filterUnits="userSpaceOnUse" color-interpolation-filters="sRGB"><feFlood flood-opacity="0" result="BackgroundImageFix"/><feColorMatrix in="SourceAlpha" values="0 0 0 0 0 0 0 0 0 0 0 0 0 0 0 0 0 0 127 0"/><feOffset dy="15"/><feGaussianBlur stdDeviation="8"/><feColorMatrix values="0 0 0 0 0 0 0 0 0 0 0 0 0 0 0 0 0 0 0.260927 0"/><feBlend in2="BackgroundImageFix" result="effect1_dropShadow"/><feColorMatrix in="SourceAlpha" values="0 0 0 0 0 0 0 0 0 0 0 0 0 0 0 0 0 0 127 0"/><feOffset dy="2"/><feGaussianBlur stdDeviation=".5"/><feColorMatrix values="0 0 0 0 0 0 0 0 0 0 0 0 0 0 0 0 0 0 0.153546 0"/><feBlend in2="effect1_dropShadow" result="effect2_dropShadow"/><feBlend in="SourceGraphic" in2="effect2_dropShadow" result="shape"/></filter><filter id="prefix__prefix__filter1_dd" x="0" y="0" width="194" height="194" filterUnits="userSpaceOnUse" color-interpolation-filters="sRGB"><feFlood flood-opacity="0" result="BackgroundImageFix"/><feColorMatrix in="SourceAlpha" values="0 0 0 0 0 0 0 0 0 0 0 0 0 0 0 0 0 0 127 0"/><feOffset dy="15"/><feGaussianBlur stdDeviation="8"/><feColorMatrix values="0 0 0 0 0 0 0 0 0 0 0 0 0 0 0 0 0 0 0.260927 0"/><feBlend in2="BackgroundImageFix" result="effect1_dropShadow"/><feColorMatrix in="SourceAlpha" values="0 0 0 0 0 0 0 0 0 0 0 0 0 0 0 0 0 0 127 0"/><feOffset dy="2"/><feGaussianBlur stdDeviation=".5"/><feColorMatrix values="0 0 0 0 0 0 0 0 0 0 0 0 0 0 0 0 0 0 0.153546 0"/><feBlend in2="effect1_dropShadow" result="effect2_dropShadow"/><feBlend in="SourceGraphic" in2="effect2_dropShadow" result="shape"/></filter><filter id="prefix__prefix__filter2_dd" x="32" y="32" width="130" height="130" filterUnits="userSpaceOnUse" color-interpolation-filters="sRGB"><feFlood flood-opacity="0" result="BackgroundImageFix"/><feColorMatrix in="SourceAlpha" values="0 0 0 0 0 0 0 0 0 0 0 0 0 0 0 0 0 0 127 0"/><feOffset dy="15"/><feGaussianBlur stdDeviation="8"/><feColorMatrix values="0 0 0 0 0 0 0 0 0 0 0 0 0 0 0 0 0 0 0.260927 0"/><feBlend in2="BackgroundImageFix" result="effect1_dropShadow"/><feColorMatrix in="SourceAlpha" values="0 0 0 0 0 0 0 0 0 0 0 0 0 0 0 0 0 0 127 0"/><feOffset dy="2"/><feGaussianBlur stdDeviation=".5"/><feColorMatrix values="0 0 0 0 0 0 0 0 0 0 0 0 0 0 0 0 0 0 0.153546 0"/><feBlend in2="effect1_dropShadow" result="effect2_dropShadow"/><feBlend in="SourceGraphic" in2="effect2_dropShadow" result="shape"/></filter><linearGradient id="prefix__prefix__paint0_linear" x1="117.354" y1="-48" x2="-12.646" y2="41.292" gradientUnits="userSpaceOnUse"><stop stop-color="#fff" stop-opacity=".272"/><stop offset="1" stop-color="#fff"/></linearGradient><linearGradient id="prefix__prefix__paint1_linear" x1="122.364" y1="-80" x2="-39.636" y2="31.272" gradientUnits="userSpaceOnUse"><stop stop-color="#fff" stop-opacity=".272"/><stop offset="1" stop-color="#fff"/></linearGradient></defs></svg>