<svg xmlns="http://www.w3.org/2000/svg" viewBox="0 0 165 179"><defs><filter id="prefix__prefix__thbqa" width="156" height="171" x="5" y="3" filterUnits="userSpaceOnUse"><feOffset dy="15" in="SourceGraphic" result="FeOffset1313Out"/><feGaussianBlur in="FeOffset1313Out" result="FeGaussianBlur1314Out" stdDeviation="6.4 6.4"/></filter><filter id="prefix__prefix__thbqc" width="150" height="152" x="8" y="6" filterUnits="userSpaceOnUse"><feOffset dy="2" in="SourceGraphic" result="FeOffset1324Out"/><feGaussianBlur in="FeOffset1324Out" result="FeGaussianBlur1325Out" stdDeviation="0.4 0.4"/></filter><filter id="prefix__prefix__thbqf" width="188" height="203" x="-11" y="-13" filterUnits="userSpaceOnUse"><feOffset dy="15" in="SourceGraphic" result="FeOffset1342Out"/><feGaussianBlur in="FeOffset1342Out" result="FeGaussianBlur1343Out" stdDeviation="6.4 6.4"/></filter><filter id="prefix__prefix__thbqh" width="182" height="184" x="-8" y="-10" filterUnits="userSpaceOnUse"><feOffset dy="2" in="SourceGraphic" result="FeOffset1353Out"/><feGaussianBlur in="FeOffset1353Out" result="FeGaussianBlur1354Out" stdDeviation="0.4 0.4"/></filter><filter id="prefix__prefix__thbqk" width="124" height="139" x="21" y="19" filterUnits="userSpaceOnUse"><feOffset dy="15" in="SourceGraphic" result="FeOffset1371Out"/><feGaussianBlur in="FeOffset1371Out" result="FeGaussianBlur1372Out" stdDeviation="6.4 6.4"/></filter><filter id="prefix__prefix__thbqm" width="118" height="120" x="24" y="22" filterUnits="userSpaceOnUse"><feOffset dy="2" in="SourceGraphic" result="FeOffset1382Out"/><feGaussianBlur in="FeOffset1382Out" result="FeGaussianBlur1383Out" stdDeviation="0.4 0.4"/></filter><mask id="prefix__prefix__thbqb" width="1.8" height="1.8" x="-.9" y="-.9"><path fill="#fff" d="M31 29h104v104H31z"/><path d="M83 146c35.899 0 65-29.101 65-65s-29.101-65-65-65-65 29.101-65 65 29.101 65 65 65z"/></mask><mask id="prefix__prefix__thbqd" width="1.98" height="1.98" x="-.99" y="-.99"><path fill="#fff" d="M19 17h128v128H19z"/><path d="M83 146c35.899 0 65-29.101 65-65s-29.101-65-65-65-65 29.101-65 65 29.101 65 65 65z"/></mask><mask id="prefix__prefix__thbqg" width="1.84" height="1.84" x="-.92" y="-.92"><path fill="#fff" d="M15 13h136v136H15z"/><path d="M83 162c44.735 0 81-36.265 81-81S127.735 0 83 0 2 36.265 2 81s36.265 81 81 81z"/></mask><mask id="prefix__prefix__thbqi" width="1.99" height="1.99" x="-.99" y="-.99"><path fill="#fff" d="M3 1h160v160H3z"/><path d="M83 162c44.735 0 81-36.265 81-81S127.735 0 83 0 2 36.265 2 81s36.265 81 81 81z"/></mask><mask id="prefix__prefix__thbql" width="1.73" height="1.73" x="-.87" y="-.87"><path fill="#fff" d="M47 45h72v72H47z"/><path d="M34 81c0-27.062 21.938-49 49-49s49 21.938 49 49-21.938 49-49 49-49-21.938-49-49zm61.962 0l-22-15v30z"/></mask><mask id="prefix__prefix__thbqn" width="1.98" height="1.98" x="-.99" y="-.99"><path fill="#fff" d="M35 33h96v96H35z"/><path d="M34 81c0-27.062 21.938-49 49-49s49 21.938 49 49-21.938 49-49 49-49-21.938-49-49zm61.962 0l-22-15v30z"/></mask><clipPath id="prefix__prefix__thbqe"><path fill="#fff" d="M83 146c35.899 0 65-29.101 65-65s-29.101-65-65-65-65 29.101-65 65 29.101 65 65 65z"/></clipPath><clipPath id="prefix__prefix__thbqj"><path fill="#fff" d="M83 162c44.735 0 81-36.265 81-81S127.735 0 83 0 2 36.265 2 81s36.265 81 81 81z"/></clipPath><clipPath id="prefix__prefix__thbqo"><path fill="#fff" d="M34 81c0-27.062 21.938-49 49-49s49 21.938 49 49-21.938 49-49 49-49-21.938-49-49zm61.962 0l-22-15v30z"/></clipPath><clipPath id="prefix__prefix__thbqp"><path fill="#fff" d="M34 81c0-27.062 21.938-49 49-49s49 21.938 49 49-21.938 49-49 49-49-21.938-49-49zm61.962 0l-22-15v30z"/></clipPath></defs><g opacity=".39"><g filter="url(#prefix__prefix__thbqa)"><path fill="none" d="M83 146c35.899 0 65-29.101 65-65s-29.101-65-65-65-65 29.101-65 65 29.101 65 65 65z" mask="url(&quot;#thbqb&quot;)"/><path fill-opacity=".26" d="M83 146c35.899 0 65-29.101 65-65s-29.101-65-65-65-65 29.101-65 65 29.101 65 65 65z"/></g><g filter="url(#prefix__prefix__thbqc)"><path fill="none" d="M83 146c35.899 0 65-29.101 65-65s-29.101-65-65-65-65 29.101-65 65 29.101 65 65 65z" mask="url(&quot;#thbqd&quot;)"/><path fill-opacity=".15" d="M83 146c35.899 0 65-29.101 65-65s-29.101-65-65-65-65 29.101-65 65 29.101 65 65 65z"/></g><path fill="none" stroke="#000" stroke-miterlimit="20" stroke-width="2" d="M83 146c35.899 0 65-29.101 65-65s-29.101-65-65-65-65 29.101-65 65 29.101 65 65 65z" clip-path="url(&quot;#thbqe&quot;)"/></g><g opacity=".15"><g filter="url(#prefix__prefix__thbqf)"><path fill="none" d="M83 162c44.735 0 81-36.265 81-81S127.735 0 83 0 2 36.265 2 81s36.265 81 81 81z" mask="url(&quot;#thbqg&quot;)"/><path fill-opacity=".26" d="M83 162c44.735 0 81-36.265 81-81S127.735 0 83 0 2 36.265 2 81s36.265 81 81 81z"/></g><g filter="url(#prefix__prefix__thbqh)"><path fill="none" d="M83 162c44.735 0 81-36.265 81-81S127.735 0 83 0 2 36.265 2 81s36.265 81 81 81z" mask="url(&quot;#thbqi&quot;)"/><path fill-opacity=".15" d="M83 162c44.735 0 81-36.265 81-81S127.735 0 83 0 2 36.265 2 81s36.265 81 81 81z"/></g><path fill="none" stroke="#000" stroke-miterlimit="20" stroke-width="2" d="M83 162c44.735 0 81-36.265 81-81S127.735 0 83 0 2 36.265 2 81s36.265 81 81 81z" clip-path="url(&quot;#thbqj&quot;)"/></g><g filter="url(#prefix__prefix__thbqk)"><path fill="none" d="M34 81c0-27.062 21.938-49 49-49s49 21.938 49 49-21.938 49-49 49-49-21.938-49-49zm61.962 0l-22-15v30z" mask="url(&quot;#thbql&quot;)"/><path fill-opacity=".26" d="M34 81c0-27.062 21.938-49 49-49s49 21.938 49 49-21.938 49-49 49-49-21.938-49-49zm61.962 0l-22-15v30z"/></g><g filter="url(#prefix__prefix__thbqm)"><path fill="none" d="M34 81c0-27.062 21.938-49 49-49s49 21.938 49 49-21.938 49-49 49-49-21.938-49-49zm61.962 0l-22-15v30z" mask="url(&quot;#thbqn&quot;)"/><path fill-opacity=".15" d="M34 81c0-27.062 21.938-49 49-49s49 21.938 49 49-21.938 49-49 49-49-21.938-49-49zm61.962 0l-22-15v30z"/></g><path fill="#ffc73d" d="M34 81c0-27.062 21.938-49 49-49s49 21.938 49 49-21.938 49-49 49-49-21.938-49-49zm61.962 0l-22-15v30z"/><path fill="none" stroke="#ffd262" stroke-miterlimit="20" stroke-width="4" d="M34 81c0-27.062 21.938-49 49-49s49 21.938 49 49-21.938 49-49 49-49-21.938-49-49zm61.962 0l-22-15v30z" clip-path="url(&quot;#thbqo&quot;)"/><path fill="none" stroke="#ffc024" stroke-miterlimit="20" stroke-width="2" d="M34 81c0-27.062 21.938-49 49-49s49 21.938 49 49-21.938 49-49 49-49-21.938-49-49zm61.962 0l-22-15v30z" clip-path="url(&quot;#thbqp&quot;)"/></svg>