<svg viewBox="0 0 215 55" xmlns="http://www.w3.org/2000/svg"><g id="prefix__prefix__Page-1" stroke="none" stroke-width="1" fill="none" fill-rule="evenodd"><g id="prefix__prefix__Artboard" transform="translate(-81 -296)"><g id="prefix__prefix__ks" transform="translate(81 296)"><path d="M156.123 28.527v.791c-.792.143-.924.325-.924 1.045v7.56h2.72v-7.56c0-.72-.122-.902-.924-1.045v-.79h5.855v.79c-.792.143-.923.325-.923 1.045v7.56h2.719v-7.56c0-.72-.122-.902-.923-1.045v-.79h6.139v.79c-1.014.162-1.208.386-1.208 1.127v7.478h1.634l.08 3.947h-.79c-1.015-2.729-1.3-3.023-2.912-3.023h-16.682v-.79c1.015-.165 1.207-.387 1.207-1.118v-6.494c0-.74-.192-.965-1.207-1.127v-.79h6.139zm-64.312-.212c3.521 0 6.017 2.069 6.017 5.316 0 3.207-2.546 5.44-6.078 5.44-3.52 0-6.017-2.08-6.017-5.328 0-3.216 2.557-5.428 6.078-5.428zm37.214 0c3.521 0 6.017 2.069 6.017 5.316 0 3.207-2.546 5.44-6.078 5.44-3.52 0-6.017-2.08-6.017-5.328 0-3.216 2.557-5.428 6.078-5.428zm-23.813 0c2.65 0 4.161 1.248 4.161 2.84 0 1.056-.792 1.766-1.725 1.766-.954 0-1.704-.72-1.704-1.664 0-.792.516-1.442 1.227-1.613a2.537 2.537 0 00-.984-.183c-1.604 0-2.709 1.35-2.709 3.562 0 2.73 1.643 4.22 3.663 4.22.872 0 1.775-.284 2.272-.74v.791c-.822 1.086-2.445 1.776-4.373 1.776-3.105 0-5.652-1.989-5.652-5.317 0-3.308 2.526-5.438 5.824-5.438zm-25.647-13.49c6.657 0 10.531 2.433 10.531 7.076 0 4.982-4.545 7.53-10.53 7.53h-2.517v6.205c0 1.643.37 2.113 2.683 2.415v.99H69.536v-.99c2.147-.319 2.465-.688 2.465-2.18V17.994c0-1.491-.318-1.86-2.465-2.18v-.989h10.03zm41.942 13.702l.092 3.846h-.77c-.64-2.324-1.067-2.81-2.315-2.902l-.386-.03v7.397c0 .811.203 1.034 1.35 1.218v.791h-6.728v-.79c1.158-.185 1.361-.408 1.361-1.219V29.44l-.386.031c-1.248.091-1.675.578-2.314 2.902h-.78l.09-3.846h10.786zm22.574 0c2.699 0 4.17.832 4.17 2.354 0 1.441-1.492 2.172-3.227 2.405 2.193.152 3.623.964 3.623 2.598 0 1.856-1.978 2.963-4.596 2.963h-7.601v-.79c1.015-.164 1.208-.377 1.208-1.118v-6.504c0-.73-.193-.944-1.208-1.117v-.79h7.63zm33.415 0v.792c-.842.162-.984.335-.984 1.045v4.87l3.247-4.423v-.447c0-.71-.142-.893-.974-1.045v-.791h6.19v.79c-1.015.174-1.198.386-1.198 1.117v6.505c0 .74.183.953 1.198 1.116v.79h-6.19v-.79c.832-.143.974-.325.974-1.046v-4.86l-3.247 4.424v.436c0 .72.142.894.984 1.046v.79h-6.2v-.79c1.015-.163 1.208-.376 1.208-1.116v-6.505c0-.731-.193-.943-1.207-1.116v-.791h6.199zm14.903 0v.792c-.842.162-.984.335-.984 1.045v2.83l.852-.01 2.314-2.303c.994-.994.903-1.37-.315-1.562v-.791h4.516v.79c-1.096.194-1.766.386-3.207 1.757l-.283.303 2.029 3.948c1.055 2.07 1.41 2.546 2.029 2.77v.75h-4.647l-2.425-4.728-.863-.01v2.902c0 .72.142.894.984 1.046v.79h-6.2v-.79c1.015-.163 1.208-.376 1.208-1.116v-6.505c0-.731-.193-.943-1.207-1.116v-.791h6.199zm16.425 0v.792c-1.157.182-1.36.406-1.36 1.217v1.928h1.938c3.014 0 4.708 1.157 4.708 3.156 0 2.009-1.745 3.227-4.585 3.227h-7.439v-.791c1.157-.184 1.37-.406 1.37-1.218V29.44l-.416.02c-1.319.08-1.675.599-2.253 2.912h-.78l.091-3.845h8.726zM91.73 29.34c-1.197 0-1.806 1.573-1.806 4.272 0 2.81.72 4.424 1.907 4.424 1.207 0 1.806-1.573 1.806-4.272 0-2.801-.72-4.424-1.907-4.424zm37.214 0c-1.197 0-1.807 1.573-1.807 4.272 0 2.81.721 4.424 1.908 4.424 1.207 0 1.806-1.573 1.806-4.272 0-2.801-.72-4.424-1.907-4.424zm12.722 4.606v3.99l.78-.032c1.219-.03 2.092-.66 2.092-2.019 0-1.36-.832-1.918-2.091-1.928l-.781-.01zm65.798-.557v4.546l.59-.021c1.267-.071 1.998-.903 1.998-2.253 0-1.36-.64-2.221-1.969-2.262l-.619-.01zm-65.798-3.948v3.643l.78-.01c1.147-.01 1.777-.67 1.777-1.816 0-1.157-.61-1.756-1.755-1.786l-.802-.03zM77.049 15.982v12.293l1.375-.051c4.242-.184 6.322-2.431 6.322-6.07 0-3.59-1.996-5.936-6.322-6.122l-1.375-.05z" id="prefix__prefix__Combined-Shape" fill="#3C3C3B"/><path d="M50.747 3.961c-14.02-5.28-33.217-5.28-47.238 0-4.679 14.155-4.679 32.665 0 46.82 14.021 5.282 33.217 5.282 47.238 0 4.68-14.155 4.68-32.665 0-46.82" id="prefix__prefix__Fill-21" fill="#2D61CE"/><path d="M18.733 13.666c5.333 0 8.436 6.136 8.436 9.856 0 3.99-3.64 9.856-8.436 9.856h-2.016v4.97c0 1.317.296 1.693 2.15 1.934v.793h-8.168v-.793c1.72-.255 1.975-.55 1.975-1.746v-22.33c0-1.196-.255-1.492-1.975-1.747v-.793zm18.509 0v.793c-1.841.241-2.137.618-2.137 1.935v1.286h5.635v1.095h-5.635v2.817h2.485c4.958 0 7.967 6.074 7.967 9.701 0 3.386-2.808 9.782-7.86 9.782H28.94v-.793c1.84-.24 2.122-.617 2.122-1.934V18.775h-.941V17.68h.94v-3.046h-.16c-3.036.147-2.388.792-2.98 3.855h-.751l.175-4.823h9.897zm-2.137 8.907v17.548l1.586-.04c3.117-.12 4.567-5.886 4.567-8.68 0-2.9-1.626-8.748-4.648-8.815l-1.505-.013zm-18.388-7.979v17.857l1.102-.04c3.398-.148 5.064-5.772 5.064-8.688 0-2.875-1.598-8.942-5.064-9.089l-1.102-.04z" id="prefix__prefix__Combined-Shape" fill="#FFF"/><path d="M148.505 17.709c.766 0 1.258.426 1.44 1.086l-.344.089c-.14-.52-.506-.85-1.096-.85-.776 0-1.16.57-1.166 1.396-.004.826.39 1.397 1.166 1.397.59 0 .956-.331 1.096-.851l.344.089c-.182.66-.674 1.086-1.44 1.086-.987 0-1.521-.704-1.521-1.721 0-1.017.534-1.721 1.52-1.721zm47.807 0c.988 0 1.523.704 1.523 1.72 0 1.018-.535 1.722-1.523 1.722-.986 0-1.521-.704-1.521-1.721 0-1.017.535-1.721 1.521-1.721zm-29.544.07v3.302h-.337v-2.98h-1.423c-.04.634-.075 1.314-.197 2.09-.094.59-.22 1.049-.84.89v-.3c.338.033.406-.075.513-.747.114-.721.163-1.422.2-2.255h2.084zm-5.466 2.91v.393h-.392v-.393h.392zm13.681-2.91v1.56l1.508-1.56h.43l-1.539 1.595 1.665 1.707h-.44l-1.624-1.651v1.651h-.337V17.78h.337zm31.857 0l1.137 3.302h-.351l-.278-.8h-1.464l-.278.8h-.351l1.137-3.303h.448zm-64.095 0v1.56l1.507-1.56h.43l-1.538 1.595 1.665 1.707h-.44l-1.624-1.651v1.651h-.337V17.78h.337zm14.36 0l1.137 3.302h-.35l-.279-.8h-1.464l-.278.8h-.35l1.136-3.303h.448zm12.622 0l.978 2.158.995-2.158h.36l-1.537 3.302h-.367l.372-.781-1.174-2.521h.373zm10.167 0v1.254h.938c.064 0 .149.004.233.019.514.078.804.49.804 1.005 0 .514-.29.926-.804 1.007a1.576 1.576 0 01-.233.017h-1.276v-3.302h.338zm10.089 0v1.488h1.826v-1.488h.335v3.302h-.335v-1.49h-1.826v1.49h-.337V17.78h.337zm11.775 0c.552 0 .919.383.919.85a.795.795 0 01-.387.7.863.863 0 01.548.825c0 .573-.392.927-.975.927h-1.381v-3.303h1.276zm-14.945 0v3.302h-.336v-1.254h-1.057l-.608 1.254h-.387l.652-1.336c-.372-.15-.576-.507-.576-.941 0-.515.289-.926.805-1.007.084-.013.167-.018.231-.018h1.276zm9.499.255c-.774-.002-1.155.57-1.162 1.396-.008.826.388 1.392 1.162 1.397.775 0 1.165-.571 1.165-1.397 0-.826-.39-1.392-1.165-1.396zm-15.49 1.32h-.928v1.404h.928c.056 0 .136-.005.207-.019.337-.073.493-.376.493-.682 0-.308-.156-.611-.493-.682a1.075 1.075 0 00-.207-.021zm21.02.152h-1.02v1.252h.958c.402 0 .709-.223.709-.599a.638.638 0 00-.646-.653zm4.77-1.35l-.621 1.808h1.247l-.625-1.808zm-49.734 0l-.622 1.808h1.247l-.625-1.808zm29.599-.054h-.931c-.054 0-.132.005-.204.019-.337.073-.493.376-.493.683 0 .307.156.61.493.68.072.017.15.022.204.022h.931v-1.404zm15.279-.005h-.934v1.09h.934a.555.555 0 00.573-.562c0-.313-.24-.528-.573-.528z" id="prefix__prefix__Combined-Shape" fill="#3C3C3B"/></g></g></g></svg>