<svg viewBox="0 0 380 58" xmlns="http://www.w3.org/2000/svg"><defs><linearGradient x1="49.723%" y1=".004%" x2="49.723%" y2="99.993%" id="prefix__prefix__linearGradient-1"><stop stop-color="#FFCB0A" offset="0%"/><stop stop-color="#FED307" offset="40%"/><stop stop-color="#FAAE1B" offset="50%"/><stop stop-color="#FBB219" offset="65.06%"/><stop stop-color="#FDBD14" offset="83.54%"/><stop stop-color="#FFCB0A" offset="100%"/></linearGradient><linearGradient x1="49.799%" y1=".004%" x2="49.799%" y2="99.993%" id="prefix__prefix__linearGradient-2"><stop stop-color="#FFCB0A" offset="0%"/><stop stop-color="#FED307" offset="40%"/><stop stop-color="#FAAE1B" offset="50%"/><stop stop-color="#FBB219" offset="65.06%"/><stop stop-color="#FDBD14" offset="83.54%"/><stop stop-color="#FFCB0A" offset="100%"/></linearGradient><linearGradient x1="49.945%" y1=".004%" x2="49.945%" y2="99.993%" id="prefix__prefix__linearGradient-3"><stop stop-color="#FFCB0A" offset="0%"/><stop stop-color="#FED307" offset="40%"/><stop stop-color="#FAAE1B" offset="50%"/><stop stop-color="#FBB219" offset="65.06%"/><stop stop-color="#FDBD14" offset="83.54%"/><stop stop-color="#FFCB0A" offset="100%"/></linearGradient><linearGradient x1="49.916%" y1=".004%" x2="49.916%" y2="99.993%" id="prefix__prefix__linearGradient-4"><stop stop-color="#FFCB0A" offset="0%"/><stop stop-color="#FED307" offset="40%"/><stop stop-color="#FAAE1B" offset="50%"/><stop stop-color="#FBB219" offset="65.06%"/><stop stop-color="#FDBD14" offset="83.54%"/><stop stop-color="#FFCB0A" offset="100%"/></linearGradient></defs><g id="prefix__prefix__Page-1" stroke="none" stroke-width="1" fill="none" fill-rule="evenodd"><g id="prefix__prefix__logo"><circle id="prefix__prefix__Oval" fill="#FFCB05" cx="218.3" cy="11.9" r="4.9"/><circle id="prefix__prefix__Oval" fill="#FFCB05" cx="225.7" cy="5.7" r="4.9"/><g id="prefix__prefix__Group" transform="translate(64 12)" fill="#005EA1"><path id="prefix__prefix__Shape" d="M154.3 33.6V10.5L166.8 0v33.6zm-73.3.1V0h19.3c10.5 0 14.3 6.5 14.3 12.1 0 5.9-4.3 11.9-14 11.9h-7.1v9.7H81zm12.5-17.4h2.6c3.9 0 5.9-1.5 5.9-4.3 0-2-1-4.3-6-4.3h-2.5v8.6zm44.6 17.4l-2.3-7.2h-10.1l-2.2 7.2H111L122.5.1h17l11.7 33.6h-13.1zm-11-15h7.3l-3.5-10.8h-.3l-3.5 10.8zM9.6 33.7l3.7-7.3L.1 0h13.1l6.6 13.3L26.5 0h13.1L22.7 33.7zm185.2 0V21.2h-8.6v12.5h-12.5V0h12.5v11.7h8.6V0h12.6v33.7zm43.4 0l-2.3-7.2h-10.1l-2.2 7.2h-12.5L222.6.1h17l11.7 33.6h-13.1zm-11-15h7.3L231 7.9h-.3l-3.5 10.8zm-164 15l-7.8-13.4v13.4H42.9V0h12.5v13.3L63.3 0h14L67.2 16.8l10.1 16.9z"/></g><path d="M328.2 29.1c0 9.7-1 19.1-2.9 28.2h17.3c1.7-9.2 2.6-18.6 2.6-28.2 0-9.7-.9-19.2-2.6-28.5h-17.3c1.8 9.2 2.9 18.7 2.9 28.5z" id="prefix__prefix__Shape" fill="url(#prefix__prefix__linearGradient-1)" opacity=".7"/><path d="M377.1.6h-25.9c1.6 9.2 2.5 18.8 2.5 28.5 0 9.6-.8 19.1-2.4 28.2h25.9c1.4-9.2 2.1-18.6 2.1-28.2-.1-9.7-.8-19.2-2.2-28.5z" id="prefix__prefix__Shape" fill="url(#prefix__prefix__linearGradient-2)"/><path d="M25.9 29.1c0-9.7.9-19.2 2.5-28.5H2.5C1.1 9.9.4 19.4.4 29.1c0 9.6.7 19 2.1 28.2h25.9c-1.7-9.2-2.5-18.6-2.5-28.2z" id="prefix__prefix__Shape" fill="url(#prefix__prefix__linearGradient-3)"/><path d="M37 57.3h17.3c-1.9-9.1-2.9-18.6-2.9-28.2 0-9.8 1-19.3 3-28.5H37c-1.7 9.2-2.6 18.7-2.6 28.5 0 9.6.9 19 2.6 28.2z" id="prefix__prefix__Shape" fill="url(#prefix__prefix__linearGradient-4)" opacity=".7"/></g></g></svg>