<svg viewBox="0 0 36 27" xmlns="http://www.w3.org/2000/svg" width="36" height="27"><g id="Shape Copy 3"><g id="Shape Copy 2"><path id="Shape Copy" fill-rule="evenodd" clip-rule="evenodd" d="M16.749 0h1.865v3.514h12.55v1.795h-.78l3.963 8.312h.335v.898l-.001.092c-.05 3.029-2.606 5.471-5.752 5.471h-.095l-.094-.003c-3.091-.096-5.564-2.55-5.564-5.56v-.898h.334l3.963-8.311h-8.858v15.257h3.037L24.438 27H10.926l2.786-6.433h3.037V5.309H7.89l3.963 8.312h.335v.898l-.001.092c-.051 3.029-2.606 5.471-5.752 5.471h-.096l-.093-.003C3.155 19.983.682 17.53.682 14.52v-.898h.334L4.98 5.309H4.2V3.513h12.55V0zm3.71 22.461H15.02l-1.23 2.793h7.898l-1.23-2.793zM10.21 15.478l-.074.228c-.513 1.596-2.023 2.68-3.732 2.682-1.69-.002-3.186-1.065-3.713-2.634l-.016-.048-.073-.228h7.607zm22.476.228l.073-.228h-7.607l.073.228.016.048c.527 1.57 2.024 2.633 3.714 2.634 1.708 0 3.219-1.086 3.731-2.682zM3.034 13.733l3.373-7.1 3.373 7.1H3.034zm25.923-7.1l-3.373 7.1h6.746l-3.373-7.1z"/></g></g></svg>