<svg viewBox="0 0 114 114" xmlns="http://www.w3.org/2000/svg" width="64" height="64"><g id="Combined Shape" filter="url(#filter0_dd)"><mask id="path-1-inside-1"><path fill-rule="evenodd" clip-rule="evenodd" d="M98 42c0 22.644-18.356 41-41 41S16 64.644 16 42 34.356 1 57 1s41 18.356 41 41zm-30 .5L50 30v25l18-12.5z"/></mask><path fill-rule="evenodd" clip-rule="evenodd" d="M98 42c0 22.644-18.356 41-41 41S16 64.644 16 42 34.356 1 57 1s41 18.356 41 41zm-30 .5L50 30v25l18-12.5z"/><path d="M50 30l1.14-1.643-3.14-2.18V30h2zm18 12.5l1.14 1.643 2.366-1.643-2.365-1.643L68 42.5zM50 55h-2v3.824l3.14-2.181L50 55zm7 30c23.748 0 43-19.252 43-43h-4c0 21.54-17.46 39-39 39v4zM14 42c0 23.748 19.252 43 43 43v-4c-21.54 0-39-17.46-39-39h-4zM57-1C33.252-1 14 18.252 14 42h4C18 20.46 35.46 3 57 3v-4zm43 43c0-23.748-19.252-43-43-43v4c21.54 0 39 17.46 39 39h4zM48.86 31.643l18 12.5 2.28-3.286-18-12.5-2.28 3.286zM52 55V30h-4v25h4zm14.86-14.143l-18 12.5 2.28 3.286 18-12.5-2.28-3.286z" mask="url(#path-1-inside-1)"/><path d="M50 30l1.14-1.643-3.14-2.18V30h2zm18 12.5l1.14 1.643 2.366-1.643-2.365-1.643L68 42.5zM50 55h-2v3.824l3.14-2.181L50 55zm7 30c23.748 0 43-19.252 43-43h-4c0 21.54-17.46 39-39 39v4zM14 42c0 23.748 19.252 43 43 43v-4c-21.54 0-39-17.46-39-39h-4zM57-1C33.252-1 14 18.252 14 42h4C18 20.46 35.46 3 57 3v-4zm43 43c0-23.748-19.252-43-43-43v4c21.54 0 39 17.46 39 39h4zM48.86 31.643l18 12.5 2.28-3.286-18-12.5-2.28 3.286zM52 55V30h-4v25h4zm14.86-14.143l-18 12.5 2.28 3.286 18-12.5-2.28-3.286z" mask="url(#path-1-inside-1)"/></g><defs><filter id="filter0_dd" x="0" y="0" width="114" height="114" filterUnits="userSpaceOnUse" color-interpolation-filters="sRGB"><feFlood flood-opacity="0" result="BackgroundImageFix"/><feColorMatrix in="SourceAlpha" values="0 0 0 0 0 0 0 0 0 0 0 0 0 0 0 0 0 0 127 0"/><feOffset dy="15"/><feGaussianBlur stdDeviation="8"/><feColorMatrix values="0 0 0 0 0 0 0 0 0 0 0 0 0 0 0 0 0 0 0.260927 0"/><feBlend in2="BackgroundImageFix" result="effect1_dropShadow"/><feColorMatrix in="SourceAlpha" values="0 0 0 0 0 0 0 0 0 0 0 0 0 0 0 0 0 0 127 0"/><feOffset dy="2"/><feGaussianBlur stdDeviation=".5"/><feColorMatrix values="0 0 0 0 0 0 0 0 0 0 0 0 0 0 0 0 0 0 0.153546 0"/><feBlend in2="effect1_dropShadow" result="effect2_dropShadow"/><feBlend in="SourceGraphic" in2="effect2_dropShadow" result="shape"/></filter></defs></svg>