<svg version="1.2" baseProfile="tiny" id="Layer_1" xmlns="http://www.w3.org/2000/svg" x="0" y="0" viewBox="0 0 38 27" xml:space="preserve" width="38" height="27"><path id="Shape" fill-rule="evenodd" d="M32.4 3.3H14.1v-.8h-2c.4-.4.7-.9 1-1.4l-2-1.1C10.3 1.6 8.7 2.5 7 2.5c-1.7 0-3.3-1-4.1-2.5L1 1.1c.3.5.6 1 1 1.4H0v1.1c0 1 .8 1.8 1.8 1.8h.8l1 5.5c.2 1.3 1.3 2.2 2.6 2.2H7c1.2 1.6 2.8 3 4.5 4l.9 9.7h3.4l1.7-7.7c.5.1 1.1.1 1.6.1h10l.5 1.7-.7 6h3.5l3.4-10.2v3.7H38V9c0-3.1-2.5-5.7-5.6-5.7zM8.3 10.6c0 .2-.2.3-.4.3H6.1c-.2 0-.3-.1-.4-.3l-1-5.8h4.6l-1 5.8zm23.4 11.3l4-12.3V9c0-1.9-1.5-3.4-3.3-3.4h-4.1c-.3 2.1-1.8 3.8-3.7 4.4-.7.2-1.2.7-1.5 1.3-.5 1.3-1.8 2.2-3.2 2.2-1.5 0-2.7-.9-3.2-2.3-.2-.6-.8-1.1-1.4-1.3-1.9-.6-3.3-2.3-3.4-4.4h-.3l-1 5.4c-.1.7-.5 1.3-1 1.7 1 1.1 2.2 2.1 3.6 2.8l.5.3.7 7.5 1.5-6.7 1 .2c.8.1 1.5.2 2.3.2h9.3l-1.2-4 2.1-.7 2.6 8.4-.3 1.3z"/><path id="Oval" d="M31.5 11c.8 0 1.5-.7 1.5-1.5S32.3 8 31.5 8 30 8.7 30 9.5s.7 1.5 1.5 1.5z"/></svg>