<svg version="1.2" baseProfile="tiny" id="Layer_1" xmlns="http://www.w3.org/2000/svg" x="0" y="0" viewBox="0 0 36.1 35.5" xml:space="preserve" width="36.1" height="35.5"><path d="M32.6 23.9l-2.1-.7c.5-1.5.7-3 .7-4.5 0-6.8-4.9-12.8-11.6-14.2l.4-2.2c7.7 1.6 13.3 8.5 13.3 16.3.1 1.9-.2 3.6-.7 5.3zM16.7 35.4c-4.7 0-9.3-2-12.4-5.6l1.6-1.5c2.8 3.1 6.7 4.8 10.8 4.8s8-1.8 10.8-4.8l1.6 1.5c-3.1 3.6-7.7 5.6-12.4 5.6zM.8 23.9c-.5-1.7-.8-3.4-.8-5.2C0 10.9 5.6 4 13.3 2.4l.4 2.2C7.1 5.9 2.2 11.9 2.2 18.7c0 1.5.2 3 .7 4.5l-2.1.7z"/><path d="M12.9 8.1l-2.1-.9 1.4-3.3-3.1-2.1L10.4 0l4.5 3.1zm18.2 17L28 20.7l1.8-1.3 2.1 3 3.4-1.4.8 2zM5.6 33.7l-2.1-.2.6-5.5 5.3-.6.2 2.2L6 30z"/></svg>