<svg version="1.2" baseProfile="tiny" id="Layer_1" xmlns="http://www.w3.org/2000/svg" x="0" y="0" viewBox="0 0 37 32" xml:space="preserve" width="37" height="32"><path d="M22 31.8L-.1 23.1l5.9-3.7 1 1.7-2.5 1.6 17.4 6.9 10.7-6.8-2.2-.9.7-1.9 5.9 2.4z"/><path d="M22 27.5l-7.3-2.9.7-1.9 6.3 2.5 10.7-6.8-2.5-1 .7-1.9 6.2 2.4L22 27.5zM8.5 22.2L0 18.8 6 15l1 1.7-2.7 1.7 4.9 1.9-.7 1.9z"/><path d="M22 23l-7.4-2.9.7-1.9 6.4 2.5L32.4 14l-2.5-1 .7-1.9 6.1 2.4L22 23zM8.3 17.6L0 14.3l6-3.8 1 1.7-2.7 1.7L9 15.8l-.7 1.8z"/><path d="M22 18.6l-7-2.8.8-1.8 5.9 2.3 10.7-6.7L15 2.7 4.3 9.5l5.3 2.1-.7 1.8-9-3.5L14.8.4l22 8.8z"/><path d="M16 29.4l-8.1-3.2V11.8l13.1-9 8.3 3.4L16 15.3v14.1zm-6.1-4.5l4.1 1.6V14.3l11.1-7.7L21.3 5 9.9 12.9v12z"/></svg>