<svg version="1.2" baseProfile="tiny" id="Layer_1" xmlns="http://www.w3.org/2000/svg" x="0" y="0" viewBox="0 0 30 30" xml:space="preserve" width="30" height="30"><path id="Star" stroke-width="2" d="M16.6 27.3c-.8-1.1-2.5-1.1-3.3 0-1.1 1.6-3.6.9-3.6-1.1 0-1.4-1.5-2.3-2.8-1.8-1.8.7-3.5-1.2-2.5-2.9.7-1.2 0-2.7-1.4-3-1.9-.3-2.3-2.9-.5-3.7 1.2-.6 1.5-2.3.5-3.2-1.4-1.3-.3-3.6 1.6-3.4 1.4.1 2.5-1.1 2.2-2.5-.5-1.9 1.7-3.3 3.2-2 1.1.9 2.7.4 3.1-.9.6-1.8 3.2-1.8 3.8 0 .4 1.3 2.1 1.7 3.1.9 1.5-1.2 3.7.2 3.2 2-.3 1.4.8 2.6 2.1 2.5 1.9-.2 3 2.1 1.6 3.4-1 .9-.8 2.6.5 3.2 1.7.9 1.4 3.4-.5 3.7-1.4.2-2.1 1.8-1.4 3 1 1.7-.7 3.6-2.5 2.9-1.3-.5-2.7.4-2.8 1.8 0 2-2.5 2.7-3.6 1.1z"/></svg>