<svg version="1.2" baseProfile="tiny" id="Layer_1" xmlns="http://www.w3.org/2000/svg" x="0" y="0" viewBox="0 0 27 27" xml:space="preserve" width="27" height="27"><path d="M5.5 11C2.5 11 0 8.5 0 5.5S2.5 0 5.5 0 11 2.5 11 5.5 8.5 11 5.5 11zm0-8C4.1 3 3 4.1 3 5.5S4.1 8 5.5 8 8 6.9 8 5.5 6.9 3 5.5 3zm16 24c-3 0-5.5-2.5-5.5-5.5s2.5-5.5 5.5-5.5 5.5 2.5 5.5 5.5-2.5 5.5-5.5 5.5zm0-8c-1.4 0-2.5 1.1-2.5 2.5s1.1 2.5 2.5 2.5 2.5-1.1 2.5-2.5-1.1-2.5-2.5-2.5z"/><path transform="rotate(-45.001 13.5 13.5)" d="M-3.5 12h33.9v3H-3.5z"/></svg>